<svg width="114" height="181" viewBox="0 0 114 181" fill="none" xmlns="http://www.w3.org/2000/svg">
<path opacity="0.1" fill-rule="evenodd" clip-rule="evenodd" d="M-43.0178 9.95488C-40.2688 9.95488 -38.0403 7.72638 -38.0403 4.97738C-38.0403 2.22838 -40.2688 -0.00012207 -43.0178 -0.00012207C-45.7668 -0.00012207 -47.9953 2.22838 -47.9953 4.97738C-47.9953 7.72638 -45.7668 9.95488 -43.0178 9.95488ZM-62.0225 9.95529C-59.2735 9.95529 -57.045 7.72678 -57.045 4.97778C-57.045 2.22879 -59.2735 0.000283877 -62.0225 0.000283877C-64.7715 0.000283877 -67 2.22879 -67 4.97778C-67 7.72678 -64.7715 9.95529 -62.0225 9.95529ZM-19.0349 4.97738C-19.0349 7.72638 -21.2634 9.95488 -24.0124 9.95488C-26.7614 9.95488 -28.9899 7.72638 -28.9899 4.97738C-28.9899 2.22838 -26.7614 -0.00012207 -24.0124 -0.00012207C-21.2634 -0.00012207 -19.0349 2.22838 -19.0349 4.97738ZM-5.00725 9.95488C-2.25825 9.95488 -0.029747 7.72638 -0.029747 4.97738C-0.029747 2.22838 -2.25825 -0.00012207 -5.00725 -0.00012207C-7.75624 -0.00012207 -9.98475 2.22838 -9.98475 4.97738C-9.98475 7.72638 -7.75624 9.95488 -5.00725 9.95488ZM18.9752 4.97738C18.9752 7.72638 16.7467 9.95488 13.9977 9.95488C11.2487 9.95488 9.02018 7.72638 9.02018 4.97738C9.02018 2.22838 11.2487 -0.00012207 13.9977 -0.00012207C16.7467 -0.00012207 18.9752 2.22838 18.9752 4.97738ZM33.0024 9.95488C35.7514 9.95488 37.9799 7.72638 37.9799 4.97738C37.9799 2.22838 35.7514 -0.00012207 33.0024 -0.00012207C30.2534 -0.00012207 28.0249 2.22838 28.0249 4.97738C28.0249 7.72638 30.2534 9.95488 33.0024 9.95488ZM56.985 4.97738C56.985 7.72638 54.7565 9.95488 52.0075 9.95488C49.2585 9.95488 47.03 7.72638 47.03 4.97738C47.03 2.22838 49.2585 -0.00012207 52.0075 -0.00012207C54.7565 -0.00012207 56.985 2.22838 56.985 4.97738ZM71.0125 9.95488C73.7615 9.95488 75.99 7.72638 75.99 4.97738C75.99 2.22838 73.7615 -0.00012207 71.0125 -0.00012207C68.2635 -0.00012207 66.035 2.22838 66.035 4.97738C66.035 7.72638 68.2635 9.95488 71.0125 9.95488ZM94.9949 4.97738C94.9949 7.72638 92.7664 9.95488 90.0174 9.95488C87.2684 9.95488 85.0399 7.72638 85.0399 4.97738C85.0399 2.22838 87.2684 -0.00012207 90.0174 -0.00012207C92.7664 -0.00012207 94.9949 2.22838 94.9949 4.97738ZM109.023 9.95488C111.772 9.95488 114 7.72638 114 4.97738C114 2.22838 111.772 -0.00012207 109.023 -0.00012207C106.274 -0.00012207 104.045 2.22838 104.045 4.97738C104.045 7.72638 106.274 9.95488 109.023 9.95488ZM-57.045 23.9824C-57.045 26.7314 -59.2735 28.9599 -62.0225 28.9599C-64.7715 28.9599 -67 26.7314 -67 23.9824C-67 21.2334 -64.7715 19.0049 -62.0225 19.0049C-59.2735 19.0049 -57.045 21.2334 -57.045 23.9824ZM-43.0178 28.9599C-40.2688 28.9599 -38.0403 26.7314 -38.0403 23.9824C-38.0403 21.2334 -40.2688 19.0049 -43.0178 19.0049C-45.7668 19.0049 -47.9953 21.2334 -47.9953 23.9824C-47.9953 26.7314 -45.7668 28.9599 -43.0178 28.9599ZM-19.0349 23.9824C-19.0349 26.7314 -21.2634 28.9599 -24.0124 28.9599C-26.7614 28.9599 -28.9899 26.7314 -28.9899 23.9824C-28.9899 21.2334 -26.7614 19.0049 -24.0124 19.0049C-21.2634 19.0049 -19.0349 21.2334 -19.0349 23.9824ZM-5.00725 28.9599C-2.25825 28.9599 -0.029747 26.7314 -0.029747 23.9824C-0.029747 21.2334 -2.25825 19.0049 -5.00725 19.0049C-7.75624 19.0049 -9.98475 21.2334 -9.98475 23.9824C-9.98475 26.7314 -7.75624 28.9599 -5.00725 28.9599ZM18.9752 23.9824C18.9752 26.7314 16.7467 28.9599 13.9977 28.9599C11.2487 28.9599 9.02018 26.7314 9.02018 23.9824C9.02018 21.2334 11.2487 19.0049 13.9977 19.0049C16.7467 19.0049 18.9752 21.2334 18.9752 23.9824ZM33.0024 28.9599C35.7514 28.9599 37.9799 26.7314 37.9799 23.9824C37.9799 21.2334 35.7514 19.0049 33.0024 19.0049C30.2534 19.0049 28.0249 21.2334 28.0249 23.9824C28.0249 26.7314 30.2534 28.9599 33.0024 28.9599ZM56.985 23.9824C56.985 26.7314 54.7565 28.9599 52.0075 28.9599C49.2585 28.9599 47.03 26.7314 47.03 23.9824C47.03 21.2334 49.2585 19.0049 52.0075 19.0049C54.7565 19.0049 56.985 21.2334 56.985 23.9824ZM71.0125 28.9599C73.7615 28.9599 75.99 26.7314 75.99 23.9824C75.99 21.2334 73.7615 19.0049 71.0125 19.0049C68.2635 19.0049 66.035 21.2334 66.035 23.9824C66.035 26.7314 68.2635 28.9599 71.0125 28.9599ZM94.9949 23.9824C94.9949 26.7314 92.7664 28.9599 90.0174 28.9599C87.2684 28.9599 85.0399 26.7314 85.0399 23.9824C85.0399 21.2334 87.2684 19.0049 90.0174 19.0049C92.7664 19.0049 94.9949 21.2334 94.9949 23.9824ZM109.023 28.9599C111.772 28.9599 114 26.7314 114 23.9824C114 21.2334 111.772 19.0049 109.023 19.0049C106.274 19.0049 104.045 21.2334 104.045 23.9824C104.045 26.7314 106.274 28.9599 109.023 28.9599ZM-57.045 42.9874C-57.045 45.7364 -59.2735 47.9649 -62.0225 47.9649C-64.7715 47.9649 -67 45.7364 -67 42.9874C-67 40.2384 -64.7715 38.0099 -62.0225 38.0099C-59.2735 38.0099 -57.045 40.2384 -57.045 42.9874ZM-43.0178 47.9649C-40.2688 47.9649 -38.0403 45.7364 -38.0403 42.9874C-38.0403 40.2384 -40.2688 38.0099 -43.0178 38.0099C-45.7668 38.0099 -47.9953 40.2384 -47.9953 42.9874C-47.9953 45.7364 -45.7668 47.9649 -43.0178 47.9649ZM-19.0349 42.9874C-19.0349 45.7364 -21.2634 47.9649 -24.0124 47.9649C-26.7614 47.9649 -28.9899 45.7364 -28.9899 42.9874C-28.9899 40.2384 -26.7614 38.0099 -24.0124 38.0099C-21.2634 38.0099 -19.0349 40.2384 -19.0349 42.9874ZM-5.00725 47.9649C-2.25825 47.9649 -0.029747 45.7364 -0.029747 42.9874C-0.029747 40.2384 -2.25825 38.0099 -5.00725 38.0099C-7.75624 38.0099 -9.98475 40.2384 -9.98475 42.9874C-9.98475 45.7364 -7.75624 47.9649 -5.00725 47.9649ZM18.9752 42.9874C18.9752 45.7364 16.7467 47.9649 13.9977 47.9649C11.2487 47.9649 9.02018 45.7364 9.02018 42.9874C9.02018 40.2384 11.2487 38.0099 13.9977 38.0099C16.7467 38.0099 18.9752 40.2384 18.9752 42.9874ZM33.0024 47.9649C35.7514 47.9649 37.9799 45.7364 37.9799 42.9874C37.9799 40.2384 35.7514 38.0099 33.0024 38.0099C30.2534 38.0099 28.0249 40.2384 28.0249 42.9874C28.0249 45.7364 30.2534 47.9649 33.0024 47.9649ZM56.985 42.9874C56.985 45.7364 54.7565 47.9649 52.0075 47.9649C49.2585 47.9649 47.03 45.7364 47.03 42.9874C47.03 40.2384 49.2585 38.0099 52.0075 38.0099C54.7565 38.0099 56.985 40.2384 56.985 42.9874ZM71.0125 47.9649C73.7615 47.9649 75.99 45.7364 75.99 42.9874C75.99 40.2384 73.7615 38.0099 71.0125 38.0099C68.2635 38.0099 66.035 40.2384 66.035 42.9874C66.035 45.7364 68.2635 47.9649 71.0125 47.9649ZM94.9949 42.9874C94.9949 45.7364 92.7664 47.9649 90.0174 47.9649C87.2684 47.9649 85.0399 45.7364 85.0399 42.9874C85.0399 40.2384 87.2684 38.0099 90.0174 38.0099C92.7664 38.0099 94.9949 40.2384 94.9949 42.9874ZM109.023 47.9649C111.772 47.9649 114 45.7364 114 42.9874C114 40.2384 111.772 38.0099 109.023 38.0099C106.274 38.0099 104.045 40.2384 104.045 42.9874C104.045 45.7364 106.274 47.9649 109.023 47.9649ZM-57.045 61.9923C-57.045 64.7413 -59.2735 66.9698 -62.0225 66.9698C-64.7715 66.9698 -67 64.7413 -67 61.9923C-67 59.2433 -64.7715 57.0148 -62.0225 57.0148C-59.2735 57.0148 -57.045 59.2433 -57.045 61.9923ZM-43.0178 66.9698C-40.2688 66.9698 -38.0403 64.7413 -38.0403 61.9923C-38.0403 59.2433 -40.2688 57.0148 -43.0178 57.0148C-45.7668 57.0148 -47.9953 59.2433 -47.9953 61.9923C-47.9953 64.7413 -45.7668 66.9698 -43.0178 66.9698ZM-19.0349 61.9923C-19.0349 64.7413 -21.2634 66.9698 -24.0124 66.9698C-26.7614 66.9698 -28.9899 64.7413 -28.9899 61.9923C-28.9899 59.2433 -26.7614 57.0148 -24.0124 57.0148C-21.2634 57.0148 -19.0349 59.2433 -19.0349 61.9923ZM-5.00725 66.9698C-2.25825 66.9698 -0.029747 64.7413 -0.029747 61.9923C-0.029747 59.2433 -2.25825 57.0148 -5.00725 57.0148C-7.75624 57.0148 -9.98475 59.2433 -9.98475 61.9923C-9.98475 64.7413 -7.75624 66.9698 -5.00725 66.9698ZM18.9752 61.9923C18.9752 64.7413 16.7467 66.9698 13.9977 66.9698C11.2487 66.9698 9.02018 64.7413 9.02018 61.9923C9.02018 59.2433 11.2487 57.0148 13.9977 57.0148C16.7467 57.0148 18.9752 59.2433 18.9752 61.9923ZM33.0024 66.9698C35.7514 66.9698 37.9799 64.7413 37.9799 61.9923C37.9799 59.2433 35.7514 57.0148 33.0024 57.0148C30.2534 57.0148 28.0249 59.2433 28.0249 61.9923C28.0249 64.7413 30.2534 66.9698 33.0024 66.9698ZM56.985 61.9923C56.985 64.7413 54.7565 66.9698 52.0075 66.9698C49.2585 66.9698 47.03 64.7413 47.03 61.9923C47.03 59.2433 49.2585 57.0148 52.0075 57.0148C54.7565 57.0148 56.985 59.2433 56.985 61.9923ZM71.0125 66.9698C73.7615 66.9698 75.99 64.7413 75.99 61.9923C75.99 59.2433 73.7615 57.0148 71.0125 57.0148C68.2635 57.0148 66.035 59.2433 66.035 61.9923C66.035 64.7413 68.2635 66.9698 71.0125 66.9698ZM94.9949 61.9923C94.9949 64.7413 92.7664 66.9698 90.0174 66.9698C87.2684 66.9698 85.0399 64.7413 85.0399 61.9923C85.0399 59.2433 87.2684 57.0148 90.0174 57.0148C92.7664 57.0148 94.9949 59.2433 94.9949 61.9923ZM109.023 66.9698C111.772 66.9698 114 64.7413 114 61.9923C114 59.2433 111.772 57.0148 109.023 57.0148C106.274 57.0148 104.045 59.2433 104.045 61.9923C104.045 64.7413 106.274 66.9698 109.023 66.9698ZM-57.045 80.9974C-57.045 83.7464 -59.2735 85.9749 -62.0225 85.9749C-64.7715 85.9749 -67 83.7464 -67 80.9974C-67 78.2484 -64.7715 76.0199 -62.0225 76.0199C-59.2735 76.0199 -57.045 78.2484 -57.045 80.9974ZM-43.0178 85.9749C-40.2688 85.9749 -38.0403 83.7464 -38.0403 80.9974C-38.0403 78.2484 -40.2688 76.0199 -43.0178 76.0199C-45.7668 76.0199 -47.9953 78.2484 -47.9953 80.9974C-47.9953 83.7464 -45.7668 85.9749 -43.0178 85.9749ZM-19.0349 80.9974C-19.0349 83.7464 -21.2634 85.9749 -24.0124 85.9749C-26.7614 85.9749 -28.9899 83.7464 -28.9899 80.9974C-28.9899 78.2484 -26.7614 76.0199 -24.0124 76.0199C-21.2634 76.0199 -19.0349 78.2484 -19.0349 80.9974ZM-5.00725 85.9749C-2.25825 85.9749 -0.029747 83.7464 -0.029747 80.9974C-0.029747 78.2484 -2.25825 76.0199 -5.00725 76.0199C-7.75624 76.0199 -9.98475 78.2484 -9.98475 80.9974C-9.98475 83.7464 -7.75624 85.9749 -5.00725 85.9749ZM18.9752 80.9974C18.9752 83.7464 16.7467 85.9749 13.9977 85.9749C11.2487 85.9749 9.02018 83.7464 9.02018 80.9974C9.02018 78.2484 11.2487 76.0199 13.9977 76.0199C16.7467 76.0199 18.9752 78.2484 18.9752 80.9974ZM33.0024 85.9749C35.7514 85.9749 37.9799 83.7464 37.9799 80.9974C37.9799 78.2484 35.7514 76.0199 33.0024 76.0199C30.2534 76.0199 28.0249 78.2484 28.0249 80.9974C28.0249 83.7464 30.2534 85.9749 33.0024 85.9749ZM56.985 80.9974C56.985 83.7464 54.7565 85.9749 52.0075 85.9749C49.2585 85.9749 47.03 83.7464 47.03 80.9974C47.03 78.2484 49.2585 76.0199 52.0075 76.0199C54.7565 76.0199 56.985 78.2484 56.985 80.9974ZM71.0125 85.9749C73.7615 85.9749 75.99 83.7464 75.99 80.9974C75.99 78.2484 73.7615 76.0199 71.0125 76.0199C68.2635 76.0199 66.035 78.2484 66.035 80.9974C66.035 83.7464 68.2635 85.9749 71.0125 85.9749ZM94.9949 80.9974C94.9949 83.7464 92.7664 85.9749 90.0174 85.9749C87.2684 85.9749 85.0399 83.7464 85.0399 80.9974C85.0399 78.2484 87.2684 76.0199 90.0174 76.0199C92.7664 76.0199 94.9949 78.2484 94.9949 80.9974ZM109.023 85.9749C111.772 85.9749 114 83.7464 114 80.9974C114 78.2484 111.772 76.0199 109.023 76.0199C106.274 76.0199 104.045 78.2484 104.045 80.9974C104.045 83.7464 106.274 85.9749 109.023 85.9749ZM-57.045 100.002C-57.045 102.751 -59.2735 104.98 -62.0225 104.98C-64.7715 104.98 -67 102.751 -67 100.002C-67 97.2534 -64.7715 95.0249 -62.0225 95.0249C-59.2735 95.0249 -57.045 97.2534 -57.045 100.002ZM-43.0178 104.98C-40.2688 104.98 -38.0403 102.751 -38.0403 100.002C-38.0403 97.2534 -40.2688 95.0249 -43.0178 95.0249C-45.7668 95.0249 -47.9953 97.2534 -47.9953 100.002C-47.9953 102.751 -45.7668 104.98 -43.0178 104.98ZM-19.0349 100.002C-19.0349 102.751 -21.2634 104.98 -24.0124 104.98C-26.7614 104.98 -28.9899 102.751 -28.9899 100.002C-28.9899 97.2534 -26.7614 95.0249 -24.0124 95.0249C-21.2634 95.0249 -19.0349 97.2534 -19.0349 100.002ZM-5.00725 104.98C-2.25825 104.98 -0.029747 102.751 -0.029747 100.002C-0.029747 97.2534 -2.25825 95.0249 -5.00725 95.0249C-7.75624 95.0249 -9.98475 97.2534 -9.98475 100.002C-9.98475 102.751 -7.75624 104.98 -5.00725 104.98ZM18.9752 100.002C18.9752 102.751 16.7467 104.98 13.9977 104.98C11.2487 104.98 9.02018 102.751 9.02018 100.002C9.02018 97.2534 11.2487 95.0249 13.9977 95.0249C16.7467 95.0249 18.9752 97.2534 18.9752 100.002ZM33.0024 104.98C35.7514 104.98 37.9799 102.751 37.9799 100.002C37.9799 97.2534 35.7514 95.0249 33.0024 95.0249C30.2534 95.0249 28.0249 97.2534 28.0249 100.002C28.0249 102.751 30.2534 104.98 33.0024 104.98ZM56.985 100.002C56.985 102.751 54.7565 104.98 52.0075 104.98C49.2585 104.98 47.03 102.751 47.03 100.002C47.03 97.2534 49.2585 95.0249 52.0075 95.0249C54.7565 95.0249 56.985 97.2534 56.985 100.002ZM71.0125 104.98C73.7615 104.98 75.99 102.751 75.99 100.002C75.99 97.2534 73.7615 95.0249 71.0125 95.0249C68.2635 95.0249 66.035 97.2534 66.035 100.002C66.035 102.751 68.2635 104.98 71.0125 104.98ZM94.9949 100.002C94.9949 102.751 92.7664 104.98 90.0174 104.98C87.2684 104.98 85.0399 102.751 85.0399 100.002C85.0399 97.2534 87.2684 95.0249 90.0174 95.0249C92.7664 95.0249 94.9949 97.2534 94.9949 100.002ZM109.023 104.98C111.772 104.98 114 102.751 114 100.002C114 97.2534 111.772 95.0249 109.023 95.0249C106.274 95.0249 104.045 97.2534 104.045 100.002C104.045 102.751 106.274 104.98 109.023 104.98ZM-57.045 119.007C-57.045 121.756 -59.2735 123.985 -62.0225 123.985C-64.7715 123.985 -67 121.756 -67 119.007C-67 116.258 -64.7715 114.03 -62.0225 114.03C-59.2735 114.03 -57.045 116.258 -57.045 119.007ZM-43.0178 123.985C-40.2688 123.985 -38.0403 121.756 -38.0403 119.007C-38.0403 116.258 -40.2688 114.03 -43.0178 114.03C-45.7668 114.03 -47.9953 116.258 -47.9953 119.007C-47.9953 121.756 -45.7668 123.985 -43.0178 123.985ZM-19.0349 119.007C-19.0349 121.756 -21.2634 123.985 -24.0124 123.985C-26.7614 123.985 -28.9899 121.756 -28.9899 119.007C-28.9899 116.258 -26.7614 114.03 -24.0124 114.03C-21.2634 114.03 -19.0349 116.258 -19.0349 119.007ZM-5.00725 123.985C-2.25825 123.985 -0.029747 121.756 -0.029747 119.007C-0.029747 116.258 -2.25825 114.03 -5.00725 114.03C-7.75624 114.03 -9.98475 116.258 -9.98475 119.007C-9.98475 121.756 -7.75624 123.985 -5.00725 123.985ZM18.9752 119.007C18.9752 121.756 16.7467 123.985 13.9977 123.985C11.2487 123.985 9.02018 121.756 9.02018 119.007C9.02018 116.258 11.2487 114.03 13.9977 114.03C16.7467 114.03 18.9752 116.258 18.9752 119.007ZM33.0024 123.985C35.7514 123.985 37.9799 121.756 37.9799 119.007C37.9799 116.258 35.7514 114.03 33.0024 114.03C30.2534 114.03 28.0249 116.258 28.0249 119.007C28.0249 121.756 30.2534 123.985 33.0024 123.985ZM56.985 119.007C56.985 121.756 54.7565 123.985 52.0075 123.985C49.2585 123.985 47.03 121.756 47.03 119.007C47.03 116.258 49.2585 114.03 52.0075 114.03C54.7565 114.03 56.985 116.258 56.985 119.007ZM71.0125 123.985C73.7615 123.985 75.99 121.756 75.99 119.007C75.99 116.258 73.7615 114.03 71.0125 114.03C68.2635 114.03 66.035 116.258 66.035 119.007C66.035 121.756 68.2635 123.985 71.0125 123.985ZM94.9949 119.007C94.9949 121.756 92.7664 123.985 90.0174 123.985C87.2684 123.985 85.0399 121.756 85.0399 119.007C85.0399 116.258 87.2684 114.03 90.0174 114.03C92.7664 114.03 94.9949 116.258 94.9949 119.007ZM109.023 123.985C111.772 123.985 114 121.756 114 119.007C114 116.258 111.772 114.03 109.023 114.03C106.274 114.03 104.045 116.258 104.045 119.007C104.045 121.756 106.274 123.985 109.023 123.985ZM-57.045 138.012C-57.045 140.761 -59.2735 142.99 -62.0225 142.99C-64.7715 142.99 -67 140.761 -67 138.012C-67 135.263 -64.7715 133.035 -62.0225 133.035C-59.2735 133.035 -57.045 135.263 -57.045 138.012ZM-43.0178 142.99C-40.2688 142.99 -38.0403 140.761 -38.0403 138.012C-38.0403 135.263 -40.2688 133.035 -43.0178 133.035C-45.7668 133.035 -47.9953 135.263 -47.9953 138.012C-47.9953 140.761 -45.7668 142.99 -43.0178 142.99ZM-19.0349 138.012C-19.0349 140.761 -21.2634 142.99 -24.0124 142.99C-26.7614 142.99 -28.9899 140.761 -28.9899 138.012C-28.9899 135.263 -26.7614 133.035 -24.0124 133.035C-21.2634 133.035 -19.0349 135.263 -19.0349 138.012ZM-5.00725 142.99C-2.25825 142.99 -0.029747 140.761 -0.029747 138.012C-0.029747 135.263 -2.25825 133.035 -5.00725 133.035C-7.75624 133.035 -9.98475 135.263 -9.98475 138.012C-9.98475 140.761 -7.75624 142.99 -5.00725 142.99ZM18.9752 138.012C18.9752 140.761 16.7467 142.99 13.9977 142.99C11.2487 142.99 9.02018 140.761 9.02018 138.012C9.02018 135.263 11.2487 133.035 13.9977 133.035C16.7467 133.035 18.9752 135.263 18.9752 138.012ZM33.0024 142.99C35.7514 142.99 37.9799 140.761 37.9799 138.012C37.9799 135.263 35.7514 133.035 33.0024 133.035C30.2534 133.035 28.0249 135.263 28.0249 138.012C28.0249 140.761 30.2534 142.99 33.0024 142.99ZM56.985 138.012C56.985 140.761 54.7565 142.99 52.0075 142.99C49.2585 142.99 47.03 140.761 47.03 138.012C47.03 135.263 49.2585 133.035 52.0075 133.035C54.7565 133.035 56.985 135.263 56.985 138.012ZM71.0125 142.99C73.7615 142.99 75.99 140.761 75.99 138.012C75.99 135.263 73.7615 133.035 71.0125 133.035C68.2635 133.035 66.035 135.263 66.035 138.012C66.035 140.761 68.2635 142.99 71.0125 142.99ZM94.9949 138.012C94.9949 140.761 92.7664 142.99 90.0174 142.99C87.2684 142.99 85.0399 140.761 85.0399 138.012C85.0399 135.263 87.2684 133.035 90.0174 133.035C92.7664 133.035 94.9949 135.263 94.9949 138.012ZM109.023 142.99C111.772 142.99 114 140.761 114 138.012C114 135.263 111.772 133.035 109.023 133.035C106.274 133.035 104.045 135.263 104.045 138.012C104.045 140.761 106.274 142.99 109.023 142.99ZM-57.045 157.017C-57.045 159.766 -59.2735 161.995 -62.0225 161.995C-64.7715 161.995 -67 159.766 -67 157.017C-67 154.268 -64.7715 152.04 -62.0225 152.04C-59.2735 152.04 -57.045 154.268 -57.045 157.017ZM-43.0178 161.995C-40.2688 161.995 -38.0403 159.766 -38.0403 157.017C-38.0403 154.268 -40.2688 152.04 -43.0178 152.04C-45.7668 152.04 -47.9953 154.268 -47.9953 157.017C-47.9953 159.766 -45.7668 161.995 -43.0178 161.995ZM-19.0349 157.017C-19.0349 159.766 -21.2634 161.995 -24.0124 161.995C-26.7614 161.995 -28.9899 159.766 -28.9899 157.017C-28.9899 154.268 -26.7614 152.04 -24.0124 152.04C-21.2634 152.04 -19.0349 154.268 -19.0349 157.017ZM-5.00725 161.995C-2.25825 161.995 -0.029747 159.766 -0.029747 157.017C-0.029747 154.268 -2.25825 152.04 -5.00725 152.04C-7.75624 152.04 -9.98475 154.268 -9.98475 157.017C-9.98475 159.766 -7.75624 161.995 -5.00725 161.995ZM18.9752 157.017C18.9752 159.766 16.7467 161.995 13.9977 161.995C11.2487 161.995 9.02018 159.766 9.02018 157.017C9.02018 154.268 11.2487 152.04 13.9977 152.04C16.7467 152.04 18.9752 154.268 18.9752 157.017ZM33.0024 161.995C35.7514 161.995 37.9799 159.766 37.9799 157.017C37.9799 154.268 35.7514 152.04 33.0024 152.04C30.2534 152.04 28.0249 154.268 28.0249 157.017C28.0249 159.766 30.2534 161.995 33.0024 161.995ZM56.985 157.017C56.985 159.766 54.7565 161.995 52.0075 161.995C49.2585 161.995 47.03 159.766 47.03 157.017C47.03 154.268 49.2585 152.04 52.0075 152.04C54.7565 152.04 56.985 154.268 56.985 157.017ZM71.0125 161.995C73.7615 161.995 75.99 159.766 75.99 157.017C75.99 154.268 73.7615 152.04 71.0125 152.04C68.2635 152.04 66.035 154.268 66.035 157.017C66.035 159.766 68.2635 161.995 71.0125 161.995ZM94.9949 157.017C94.9949 159.766 92.7664 161.995 90.0174 161.995C87.2684 161.995 85.0399 159.766 85.0399 157.017C85.0399 154.268 87.2684 152.04 90.0174 152.04C92.7664 152.04 94.9949 154.268 94.9949 157.017ZM109.023 161.995C111.772 161.995 114 159.766 114 157.017C114 154.268 111.772 152.04 109.023 152.04C106.274 152.04 104.045 154.268 104.045 157.017C104.045 159.766 106.274 161.995 109.023 161.995ZM-57.045 176.022C-57.045 178.771 -59.2735 181 -62.0225 181C-64.7715 181 -67 178.771 -67 176.022C-67 173.273 -64.7715 171.045 -62.0225 171.045C-59.2735 171.045 -57.045 173.273 -57.045 176.022ZM-43.0178 181C-40.2688 181 -38.0403 178.771 -38.0403 176.022C-38.0403 173.273 -40.2688 171.045 -43.0178 171.045C-45.7668 171.045 -47.9953 173.273 -47.9953 176.022C-47.9953 178.771 -45.7668 181 -43.0178 181ZM-19.0349 176.022C-19.0349 178.771 -21.2634 181 -24.0124 181C-26.7614 181 -28.9899 178.771 -28.9899 176.022C-28.9899 173.273 -26.7614 171.045 -24.0124 171.045C-21.2634 171.045 -19.0349 173.273 -19.0349 176.022ZM-5.00725 181C-2.25825 181 -0.029747 178.771 -0.029747 176.022C-0.029747 173.273 -2.25825 171.045 -5.00725 171.045C-7.75624 171.045 -9.98475 173.273 -9.98475 176.022C-9.98475 178.771 -7.75624 181 -5.00725 181ZM18.9752 176.022C18.9752 178.771 16.7467 181 13.9977 181C11.2487 181 9.02018 178.771 9.02018 176.022C9.02018 173.273 11.2487 171.045 13.9977 171.045C16.7467 171.045 18.9752 173.273 18.9752 176.022ZM33.0024 181C35.7514 181 37.9799 178.771 37.9799 176.022C37.9799 173.273 35.7514 171.045 33.0024 171.045C30.2534 171.045 28.0249 173.273 28.0249 176.022C28.0249 178.771 30.2534 181 33.0024 181ZM56.985 176.022C56.985 178.771 54.7565 181 52.0075 181C49.2585 181 47.03 178.771 47.03 176.022C47.03 173.273 49.2585 171.045 52.0075 171.045C54.7565 171.045 56.985 173.273 56.985 176.022ZM71.0125 181C73.7615 181 75.99 178.771 75.99 176.022C75.99 173.273 73.7615 171.045 71.0125 171.045C68.2635 171.045 66.035 173.273 66.035 176.022C66.035 178.771 68.2635 181 71.0125 181ZM94.9949 176.022C94.9949 178.771 92.7664 181 90.0174 181C87.2684 181 85.0399 178.771 85.0399 176.022C85.0399 173.273 87.2684 171.045 90.0174 171.045C92.7664 171.045 94.9949 173.273 94.9949 176.022ZM109.023 181C111.772 181 114 178.771 114 176.022C114 173.273 111.772 171.045 109.023 171.045C106.274 171.045 104.045 173.273 104.045 176.022C104.045 178.771 106.274 181 109.023 181Z" fill="#0372AD"/>
</svg>
