<svg width="341" height="113" viewBox="0 0 341 113" fill="none" xmlns="http://www.w3.org/2000/svg">
<path d="M32.736 25.64C42.656 25.64 50.336 28.392 55.776 33.896C61.216 39.4 63.936 47.208 63.936 57.32C63.936 67.432 61.216 75.24 55.776 80.744C50.336 86.248 42.656 89 32.736 89H8.256V25.64H32.736ZM32.064 78.44C38.08 78.44 42.592 76.648 45.6 73.064C48.672 69.416 50.208 64.168 50.208 57.32C50.208 50.472 48.672 45.256 45.6 41.672C42.592 38.024 38.08 36.2 32.064 36.2H21.504V78.44H32.064ZM121.512 41V89H109.8L109.32 80.744C106.248 86.888 100.648 89.96 92.52 89.96C87.336 89.96 83.208 88.584 80.136 85.832C77.128 83.016 75.624 78.664 75.624 72.776V41H88.776V69.416C88.776 73.128 89.48 75.752 90.888 77.288C92.296 78.824 94.376 79.592 97.128 79.592C100.456 79.592 103.144 78.536 105.192 76.424C107.304 74.248 108.36 71.016 108.36 66.728V41H121.512ZM158.684 60.008L149.66 70.28V89H136.412V25.64H149.66V55.688L175.676 25.64H191.036L168.284 51.464L191.804 89H176.636L158.684 60.008ZM223.841 60.008L214.817 70.28V89H201.569V25.64H214.817V55.688L240.833 25.64H256.193L233.441 51.464L256.961 89H241.792L223.841 60.008ZM272.005 34.088C266.565 34.088 263.845 31.752 263.845 27.08C263.845 22.344 266.565 19.976 272.005 19.976C277.445 19.976 280.165 22.344 280.165 27.08C280.165 31.752 277.445 34.088 272.005 34.088ZM278.533 89H265.381V41H278.533V89ZM336.347 81.032C337.691 81.032 338.779 80.904 339.611 80.648L338.651 88.616C336.859 89.512 334.779 89.96 332.411 89.96C326.267 89.96 322.587 87.56 321.371 82.76C319.963 85.128 317.787 86.92 314.843 88.136C311.899 89.352 308.411 89.96 304.379 89.96C299.707 89.96 296.059 88.904 293.435 86.792C290.811 84.68 289.499 81.64 289.499 77.672C289.499 69.864 295.739 64.808 308.219 62.504L319.739 60.296V57.992C319.739 55.432 319.003 53.416 317.531 51.944C316.123 50.408 314.139 49.64 311.579 49.64C308.635 49.64 306.235 50.28 304.379 51.56C302.523 52.84 301.243 54.92 300.539 57.8L290.075 53.384C291.099 49.224 293.403 45.96 296.987 43.592C300.571 41.224 305.243 40.04 311.003 40.04C317.851 40.04 323.195 41.544 327.035 44.552C330.875 47.496 332.795 51.88 332.795 57.704V77.384C332.795 78.664 333.083 79.592 333.659 80.168C334.235 80.744 335.131 81.032 336.347 81.032ZM308.507 81.032C311.323 81.032 313.883 80.36 316.187 79.016C318.555 77.608 319.739 75.72 319.739 73.352V68.36L309.467 70.664C307.291 71.176 305.659 71.88 304.571 72.776C303.547 73.608 303.035 74.792 303.035 76.328C303.035 77.864 303.515 79.048 304.475 79.88C305.435 80.648 306.779 81.032 308.507 81.032Z" fill="black"/>
</svg>
