<svg width="142" height="131" viewBox="0 0 142 131" fill="none" xmlns="http://www.w3.org/2000/svg">
<rect width="142" height="131" fill="white"/>
<path d="M73.376 35.976V105H61.664L61.088 96.072C59.68 99.08 57.568 101.48 54.752 103.272C52 105.064 48.832 105.96 45.248 105.96C38.848 105.96 33.824 103.784 30.176 99.432C26.528 95.016 24.704 88.904 24.704 81.096C24.704 73.224 26.528 67.08 30.176 62.664C33.824 58.248 38.848 56.04 45.248 56.04C48.704 56.04 51.712 56.84 54.272 58.44C56.832 59.976 58.816 62.12 60.224 64.872V35.976H73.376ZM49.088 95.88C52.544 95.88 55.264 94.632 57.248 92.136C59.232 89.64 60.224 86.088 60.224 81.48V80.52C60.224 75.976 59.232 72.456 57.248 69.96C55.264 67.4 52.544 66.12 49.088 66.12C45.568 66.12 42.816 67.4 40.832 69.96C38.848 72.52 37.856 76.2 37.856 81C37.856 85.8 38.848 89.48 40.832 92.04C42.816 94.6 45.568 95.88 49.088 95.88Z" fill="black"/>
<path d="M114.44 64.04C114.44 72.616 112.136 79.08 107.528 83.432C102.984 87.784 96.264 89.96 87.368 89.96C78.472 89.96 71.72 87.784 67.112 83.432C62.568 79.08 60.296 72.616 60.296 64.04V25.64H73.544V63.464C73.544 68.776 74.664 72.712 76.904 75.272C79.208 77.832 82.696 79.112 87.368 79.112C92.04 79.112 95.496 77.832 97.736 75.272C99.976 72.712 101.096 68.776 101.096 63.464V25.64H114.44V64.04Z" fill="black"/>
</svg>
